<svg width="16" height="16" viewBox="0 0 16 16" fill="none" xmlns="http://www.w3.org/2000/svg">
<rect width="16" height="16" fill="white" fill-opacity="0.01"/>
<path fill-rule="evenodd" clip-rule="evenodd" d="M5.33333 1.06667C5.33333 0.477563 5.8109 0 6.4 0H9.6C10.1891 0 10.6667 0.477563 10.6667 1.06667V2.13333H14.9333C15.5225 2.13333 16 2.6109 16 3.2V6.4C16 7.34805 15.5873 8.19983 14.9333 8.78515V12.2667C14.9333 13.1503 14.217 13.8667 13.3333 13.8667H2.66667C1.78301 13.8667 1.06667 13.1503 1.06667 12.2667V8.78496C0.412768 8.19969 0 7.34809 0 6.4V3.2C0 2.6109 0.477564 2.13333 1.06667 2.13333H5.33333V1.06667ZM9.6 1.06667V2.13333H6.4V1.06667H9.6ZM1.06667 3.2H5.33333H5.86667H10.1333H10.6667H14.9333V6.4C14.9333 7.0976 14.599 7.71698 14.0797 8.10709C13.7232 8.37487 13.2809 8.53333 12.8 8.53333H8.53333V8C8.53333 7.70545 8.29455 7.46667 8 7.46667C7.70545 7.46667 7.46667 7.70545 7.46667 8V8.53333H3.2C2.71925 8.53333 2.27691 8.37475 1.92031 8.1069C1.40091 7.71676 1.06667 7.09756 1.06667 6.4V3.2ZM7.46667 9.6H3.2C2.82625 9.6 2.46711 9.5357 2.13333 9.41765V12.2667C2.13333 12.5612 2.37212 12.8 2.66667 12.8H13.3333C13.6278 12.8 13.8667 12.5612 13.8667 12.2667V9.41776C13.5329 9.53577 13.1738 9.6 12.8 9.6H8.53333V10.1333C8.53333 10.4279 8.29455 10.6667 8 10.6667C7.70545 10.6667 7.46667 10.4279 7.46667 10.1333V9.6Z" fill="#1D211C"/>
</svg>
