<svg width="18" height="18" viewBox="0 0 18 18" fill="none" xmlns="http://www.w3.org/2000/svg">
<rect width="18" height="18" fill="white" fill-opacity="0.01"/>
<path fill-rule="evenodd" clip-rule="evenodd" d="M10.3215 1.50095C10.3215 2.10542 9.91534 2.61504 9.36105 2.77178C12.1751 2.95756 14.4 5.2989 14.4 8.1599V12.2999C14.4 13.2675 14.4395 14.0488 15.2683 14.4633C15.5172 14.5877 15.6479 14.867 15.5839 15.1378C15.52 15.4086 15.2783 15.5999 15 15.5999H9.79373C10.0429 15.8198 10.2 16.1415 10.2 16.4999C10.2 17.1627 9.66272 17.6999 8.99997 17.6999C8.33723 17.6999 7.79997 17.1627 7.79997 16.4999C7.79997 16.1415 7.9571 15.8198 8.20622 15.5999H2.99999C2.72173 15.5999 2.47998 15.4086 2.41604 15.1378C2.35212 14.867 2.48277 14.5877 2.73166 14.4633C3.5605 14.0488 3.6 13.2675 3.6 12.2999V8.1599C3.6 5.29836 5.82578 2.95667 8.64051 2.77167C8.08641 2.61481 7.68044 2.10529 7.68044 1.50095C7.68044 0.771639 8.27166 0.18042 9.00097 0.18042C9.73027 0.18042 10.3215 0.771639 10.3215 1.50095ZM8.99999 3.9599C6.6804 3.9599 4.79999 5.8403 4.79999 8.1599V12.2999L4.80003 12.361C4.80061 12.8955 4.80146 13.69 4.43916 14.3999H13.5608C13.1986 13.69 13.1994 12.8955 13.2 12.361V12.2999V8.1599C13.2 5.8403 11.3196 3.9599 8.99999 3.9599Z" fill="#60655F"/>
</svg>
