<svg width="16" height="16" viewBox="0 0 16 16" fill="none" xmlns="http://www.w3.org/2000/svg">
<rect width="16" height="16" fill="white" fill-opacity="0.01"/>
<path fill-rule="evenodd" clip-rule="evenodd" d="M4.79998 1.06665C5.09453 1.06665 5.33332 1.30543 5.33332 1.59998V2.13332H10.6667V1.59998C10.6667 1.30543 10.9055 1.06665 11.2 1.06665C11.4945 1.06665 11.7333 1.30543 11.7333 1.59998V2.13332H13.3333C14.2169 2.13332 14.9333 2.84966 14.9333 3.73332V13.3333C14.9333 14.2169 14.2169 14.9333 13.3333 14.9333H2.66665C1.78299 14.9333 1.06665 14.2169 1.06665 13.3333V3.73332C1.06665 2.84966 1.78299 2.13332 2.66665 2.13332H4.26665V1.59998C4.26665 1.30543 4.50543 1.06665 4.79998 1.06665ZM10.6667 3.19998V3.73332C10.6667 4.02787 10.9055 4.26665 11.2 4.26665C11.4945 4.26665 11.7333 4.02787 11.7333 3.73332V3.19998H13.3333C13.6278 3.19998 13.8667 3.43877 13.8667 3.73332V5.33332H2.13332V3.73332C2.13332 3.43877 2.3721 3.19998 2.66665 3.19998H4.26665V3.73332C4.26665 4.02787 4.50543 4.26665 4.79998 4.26665C5.09453 4.26665 5.33332 4.02787 5.33332 3.73332V3.19998H10.6667ZM2.13332 6.39998V13.3333C2.13332 13.6278 2.3721 13.8667 2.66665 13.8667H13.3333C13.6278 13.8667 13.8667 13.6278 13.8667 13.3333V6.39998H2.13332ZM7.46665 7.99998C7.46665 7.70543 7.70543 7.46665 7.99998 7.46665C8.29453 7.46665 8.53332 7.70543 8.53332 7.99998C8.53332 8.29453 8.29453 8.53332 7.99998 8.53332C7.70543 8.53332 7.46665 8.29453 7.46665 7.99998ZM10.1333 7.46665C9.83877 7.46665 9.59998 7.70543 9.59998 7.99998C9.59998 8.29453 9.83877 8.53332 10.1333 8.53332C10.4279 8.53332 10.6667 8.29453 10.6667 7.99998C10.6667 7.70543 10.4279 7.46665 10.1333 7.46665ZM11.7333 7.99998C11.7333 7.70543 11.9721 7.46665 12.2667 7.46665C12.5612 7.46665 12.8 7.70543 12.8 7.99998C12.8 8.29453 12.5612 8.53332 12.2667 8.53332C11.9721 8.53332 11.7333 8.29453 11.7333 7.99998ZM12.2667 9.59998C11.9721 9.59998 11.7333 9.83877 11.7333 10.1333C11.7333 10.4279 11.9721 10.6667 12.2667 10.6667C12.5612 10.6667 12.8 10.4279 12.8 10.1333C12.8 9.83877 12.5612 9.59998 12.2667 9.59998ZM9.59998 10.1333C9.59998 9.83877 9.83877 9.59998 10.1333 9.59998C10.4279 9.59998 10.6667 9.83877 10.6667 10.1333C10.6667 10.4279 10.4279 10.6667 10.1333 10.6667C9.83877 10.6667 9.59998 10.4279 9.59998 10.1333ZM7.99998 9.59998C7.70543 9.59998 7.46665 9.83877 7.46665 10.1333C7.46665 10.4279 7.70543 10.6667 7.99998 10.6667C8.29453 10.6667 8.53332 10.4279 8.53332 10.1333C8.53332 9.83877 8.29453 9.59998 7.99998 9.59998ZM5.33332 10.1333C5.33332 9.83877 5.5721 9.59998 5.86665 9.59998C6.1612 9.59998 6.39998 9.83877 6.39998 10.1333C6.39998 10.4279 6.1612 10.6667 5.86665 10.6667C5.5721 10.6667 5.33332 10.4279 5.33332 10.1333ZM3.73332 9.59998C3.43877 9.59998 3.19998 9.83877 3.19998 10.1333C3.19998 10.4279 3.43877 10.6667 3.73332 10.6667C4.02787 10.6667 4.26665 10.4279 4.26665 10.1333C4.26665 9.83877 4.02787 9.59998 3.73332 9.59998ZM3.19998 12.2667C3.19998 11.9721 3.43877 11.7333 3.73332 11.7333C4.02787 11.7333 4.26665 11.9721 4.26665 12.2667C4.26665 12.5612 4.02787 12.8 3.73332 12.8C3.43877 12.8 3.19998 12.5612 3.19998 12.2667ZM5.86665 11.7333C5.5721 11.7333 5.33332 11.9721 5.33332 12.2667C5.33332 12.5612 5.5721 12.8 5.86665 12.8C6.1612 12.8 6.39998 12.5612 6.39998 12.2667C6.39998 11.9721 6.1612 11.7333 5.86665 11.7333ZM7.46665 12.2667C7.46665 11.9721 7.70543 11.7333 7.99998 11.7333C8.29453 11.7333 8.53332 11.9721 8.53332 12.2667C8.53332 12.5612 8.29453 12.8 7.99998 12.8C7.70543 12.8 7.46665 12.5612 7.46665 12.2667ZM10.1333 11.7333C9.83877 11.7333 9.59998 11.9721 9.59998 12.2667C9.59998 12.5612 9.83877 12.8 10.1333 12.8C10.4279 12.8 10.6667 12.5612 10.6667 12.2667C10.6667 11.9721 10.4279 11.7333 10.1333 11.7333Z" fill="#040E00" fill-opacity="0.509804"/>
</svg>
