<svg width="18" height="18" viewBox="0 0 18 18" fill="none" xmlns="http://www.w3.org/2000/svg">
<rect width="18" height="18" fill="white" fill-opacity="0.01"/>
<path fill-rule="evenodd" clip-rule="evenodd" d="M9.00013 1.05237C4.61092 1.05237 1.05273 4.61054 1.05273 8.99976C1.05273 13.389 4.6109 16.9472 9.00013 16.9472C13.3894 16.9472 16.9475 13.389 16.9475 8.99976C16.9475 4.61054 13.3893 1.05237 9.00013 1.05237ZM2.19274 8.99976C2.19274 5.24015 5.24052 2.19236 9.00013 2.19236C12.7597 2.19236 15.8075 5.24015 15.8075 8.99976C15.8075 12.7593 12.7597 15.8072 9.00013 15.8072C5.24052 15.8072 2.19274 12.7593 2.19274 8.99976ZM9.60002 5.39996C9.60002 5.0686 9.33139 4.79996 9.00002 4.79996C8.66866 4.79996 8.40002 5.0686 8.40002 5.39996V8.99996C8.40002 9.15909 8.46324 9.31171 8.57576 9.42423L10.9758 11.8242C11.2101 12.0585 11.59 12.0585 11.8243 11.8242C12.0586 11.5899 12.0586 11.21 11.8243 10.9757L9.60002 8.75144V5.39996Z" fill="#1D211C"/>
</svg>
