<svg width="16" height="16" viewBox="0 0 16 16" fill="none" xmlns="http://www.w3.org/2000/svg">
<rect width="16" height="16" fill="white" fill-opacity="0.01"/>
<path fill-rule="evenodd" clip-rule="evenodd" d="M2.98665 1.06672L2.93297 1.06668C2.68929 1.06645 2.47923 1.06625 2.29314 1.11093C1.70811 1.25138 1.25132 1.70817 1.11087 2.2932C1.06619 2.47929 1.06639 2.68935 1.06662 2.93303L1.06665 2.98672V5.54672L1.06662 5.6004C1.06639 5.84408 1.06619 6.05415 1.11087 6.24023C1.25132 6.82526 1.70811 7.28205 2.29314 7.42251C2.47923 7.46718 2.68929 7.46698 2.93297 7.46675L2.98665 7.46672H5.54665L5.60034 7.46675C5.84402 7.46698 6.05409 7.46718 6.24017 7.42251C6.8252 7.28205 7.28199 6.82526 7.42245 6.24023C7.46712 6.05415 7.46692 5.84408 7.46669 5.6004L7.46665 5.54672V2.98672L7.46669 2.93303C7.46692 2.68935 7.46712 2.47929 7.42245 2.2932C7.28199 1.70817 6.8252 1.25138 6.24017 1.11093C6.05409 1.06625 5.84402 1.06645 5.60034 1.06668L5.54665 1.06672H2.98665ZM2.54215 2.14812C2.58806 2.13709 2.65836 2.13338 2.98665 2.13338H5.54665C5.87496 2.13338 5.94526 2.13709 5.99116 2.14812C6.18617 2.19494 6.33843 2.3472 6.38526 2.54221C6.39628 2.58812 6.39999 2.65842 6.39999 2.98672V5.54672C6.39999 5.87502 6.39628 5.94532 6.38526 5.99122C6.33843 6.18624 6.18617 6.33849 5.99116 6.38532C5.94526 6.39634 5.87496 6.40005 5.54665 6.40005H2.98665C2.65836 6.40005 2.58806 6.39634 2.54215 6.38532C2.34713 6.33849 2.19488 6.18624 2.14806 5.99122C2.13703 5.94532 2.13332 5.87502 2.13332 5.54672V2.98672C2.13332 2.65842 2.13703 2.58812 2.14806 2.54221C2.19488 2.3472 2.34713 2.19494 2.54215 2.14812ZM10.4533 1.06672L10.3996 1.06668C10.156 1.06645 9.9459 1.06625 9.75981 1.11093C9.17477 1.25138 8.71798 1.70817 8.57753 2.2932C8.53285 2.47929 8.53305 2.68935 8.53329 2.93303L8.53332 2.98672V5.54672L8.53329 5.6004C8.53305 5.84408 8.53285 6.05415 8.57753 6.24023C8.71798 6.82526 9.17477 7.28205 9.75981 7.42251C9.9459 7.46718 10.156 7.46698 10.3996 7.46675L10.4533 7.46672H13.0133L13.067 7.46675C13.3107 7.46698 13.5207 7.46718 13.7069 7.42251C14.2918 7.28205 14.7487 6.82526 14.8892 6.24023C14.9337 6.05415 14.9336 5.84408 14.9333 5.6004V5.54672V2.98672V2.93303C14.9336 2.68935 14.9337 2.47929 14.8892 2.2932C14.7487 1.70817 14.2918 1.25138 13.7069 1.11093C13.5207 1.06625 13.3107 1.06645 13.067 1.06668L13.0133 1.06672H10.4533ZM10.0088 2.14812C10.0547 2.13709 10.125 2.13338 10.4533 2.13338H13.0133C13.3416 2.13338 13.4119 2.13709 13.4578 2.14812C13.6528 2.19494 13.8051 2.3472 13.8519 2.54221C13.8629 2.58812 13.8667 2.65842 13.8667 2.98672V5.54672C13.8667 5.87502 13.8629 5.94532 13.8519 5.99122C13.8051 6.18624 13.6528 6.33849 13.4578 6.38532C13.4119 6.39634 13.3416 6.40005 13.0133 6.40005H10.4533C10.125 6.40005 10.0547 6.39634 10.0088 6.38532C9.8138 6.33849 9.66154 6.18624 9.61473 5.99122C9.6037 5.94532 9.59999 5.87502 9.59999 5.54672V2.98672C9.59999 2.65842 9.6037 2.58812 9.61473 2.54221C9.66154 2.3472 9.8138 2.19494 10.0088 2.14812ZM2.93297 8.53335L2.98665 8.53338H5.54665L5.60034 8.53335C5.84402 8.53311 6.05409 8.53291 6.24017 8.57759C6.8252 8.71804 7.28199 9.17483 7.42245 9.75987C7.46712 9.94596 7.46692 10.156 7.46669 10.3997L7.46665 10.4534V13.0134L7.46669 13.067C7.46692 13.3108 7.46712 13.5208 7.42245 13.7069C7.28199 14.2919 6.8252 14.7487 6.24017 14.8892C6.05409 14.9338 5.84402 14.9337 5.60034 14.9334H5.54665H2.98665H2.93297C2.68929 14.9337 2.47923 14.9338 2.29314 14.8892C1.70811 14.7487 1.25132 14.2919 1.11087 13.7069C1.06619 13.5208 1.06639 13.3108 1.06662 13.067L1.06665 13.0134V10.4534L1.06662 10.3997C1.06639 10.156 1.06619 9.94596 1.11087 9.75987C1.25132 9.17483 1.70811 8.71804 2.29314 8.57759C2.47923 8.53291 2.68929 8.53311 2.93297 8.53335ZM2.98665 9.60005C2.65836 9.60005 2.58806 9.60376 2.54215 9.61479C2.34713 9.6616 2.19488 9.81386 2.14806 10.0089C2.13703 10.0548 2.13332 10.1251 2.13332 10.4534V13.0134C2.13332 13.3417 2.13703 13.412 2.14806 13.4579C2.19488 13.6528 2.34713 13.8052 2.54215 13.852C2.58806 13.863 2.65836 13.8667 2.98665 13.8667H5.54665C5.87496 13.8667 5.94526 13.863 5.99116 13.852C6.18617 13.8052 6.33843 13.6528 6.38526 13.4579C6.39628 13.412 6.39999 13.3417 6.39999 13.0134V10.4534C6.39999 10.1251 6.39628 10.0548 6.38526 10.0089C6.33843 9.81386 6.18617 9.6616 5.99116 9.61479C5.94526 9.60376 5.87496 9.60005 5.54665 9.60005H2.98665ZM10.4533 8.53338L10.3996 8.53335C10.156 8.53311 9.9459 8.53291 9.75981 8.57759C9.17477 8.71804 8.71798 9.17483 8.57753 9.75987C8.53285 9.94596 8.53305 10.156 8.53329 10.3997L8.53332 10.4534V13.0134L8.53329 13.067C8.53305 13.3108 8.53285 13.5208 8.57753 13.7069C8.71798 14.2919 9.17477 14.7487 9.75981 14.8892C9.9459 14.9338 10.156 14.9337 10.3996 14.9334H10.4533H13.0133H13.067C13.3107 14.9337 13.5207 14.9338 13.7069 14.8892C14.2918 14.7487 14.7487 14.2919 14.8892 13.7069C14.9337 13.5208 14.9336 13.3108 14.9333 13.067V13.0134V10.4534V10.3997C14.9336 10.156 14.9337 9.94596 14.8892 9.75987C14.7487 9.17483 14.2918 8.71804 13.7069 8.57759C13.5207 8.53291 13.3107 8.53311 13.067 8.53335L13.0133 8.53338H10.4533ZM10.0088 9.61479C10.0547 9.60376 10.125 9.60005 10.4533 9.60005H13.0133C13.3416 9.60005 13.4119 9.60376 13.4578 9.61479C13.6528 9.6616 13.8051 9.81386 13.8519 10.0089C13.8629 10.0548 13.8667 10.1251 13.8667 10.4534V13.0134C13.8667 13.3417 13.8629 13.412 13.8519 13.4579C13.8051 13.6528 13.6528 13.8052 13.4578 13.852C13.4119 13.863 13.3416 13.8667 13.0133 13.8667H10.4533C10.125 13.8667 10.0547 13.863 10.0088 13.852C9.8138 13.8052 9.66154 13.6528 9.61473 13.4579C9.6037 13.412 9.59999 13.3417 9.59999 13.0134V10.4534C9.59999 10.1251 9.6037 10.0548 9.61473 10.0089C9.66154 9.81386 9.8138 9.6616 10.0088 9.61479Z" fill="#1D211C"/>
</svg>
