<svg width="18" height="18" viewBox="0 0 18 18" fill="none" xmlns="http://www.w3.org/2000/svg">
<rect width="18" height="18" fill="white" fill-opacity="0.01"/>
<path fill-rule="evenodd" clip-rule="evenodd" d="M1.79995 3.6001C1.46858 3.6001 1.19995 3.86873 1.19995 4.2001C1.19995 4.53147 1.46858 4.8001 1.79995 4.8001H16.2C16.5313 4.8001 16.8 4.53147 16.8 4.2001C16.8 3.86873 16.5313 3.6001 16.2 3.6001H1.79995ZM1.19995 9.0001C1.19995 8.66873 1.46858 8.4001 1.79995 8.4001H16.2C16.5313 8.4001 16.8 8.66873 16.8 9.0001C16.8 9.33147 16.5313 9.6001 16.2 9.6001H1.79995C1.46858 9.6001 1.19995 9.33147 1.19995 9.0001ZM1.19995 13.8001C1.19995 13.4688 1.46858 13.2001 1.79995 13.2001H16.2C16.5313 13.2001 16.8 13.4688 16.8 13.8001C16.8 14.1314 16.5313 14.4001 16.2 14.4001H1.79995C1.46858 14.4001 1.19995 14.1314 1.19995 13.8001Z" fill="#006514" fill-opacity="0.835294"/>
</svg>
