<svg width="16" height="16" viewBox="0 0 16 16" fill="none" xmlns="http://www.w3.org/2000/svg">
<path fill-rule="evenodd" clip-rule="evenodd" d="M7.9999 0.935303C4.09837 0.935303 0.935547 4.09813 0.935547 7.99965C0.935547 11.9012 4.09837 15.0641 7.9999 15.0641C11.9014 15.0641 15.0642 11.9012 15.0642 7.99965C15.0642 4.09813 11.9014 0.935303 7.9999 0.935303ZM1.94887 7.99965C1.94887 4.65778 4.65802 1.94863 7.9999 1.94863C11.3418 1.94863 14.0509 4.65778 14.0509 7.99965C14.0509 11.3415 11.3418 14.0507 7.9999 14.0507C4.65802 14.0507 1.94887 11.3415 1.94887 7.99965ZM8.79991 4.79994C8.79991 5.24176 8.44174 5.59994 7.99991 5.59994C7.55809 5.59994 7.19991 5.24176 7.19991 4.79994C7.19991 4.35811 7.55809 3.99994 7.99991 3.99994C8.44174 3.99994 8.79991 4.35811 8.79991 4.79994ZM6.40003 6.39994H6.93336H8.00003C8.29459 6.39994 8.53336 6.63871 8.53336 6.93327V10.6666H9.0667H9.60003V11.7333H9.0667H8.00003H6.93336H6.40003V10.6666H6.93336H7.4667V7.46661H6.93336H6.40003V6.39994Z" fill="#C40006" fill-opacity="0.827451"/>
</svg>
