<svg width="16" height="16" viewBox="0 0 16 16" fill="none" xmlns="http://www.w3.org/2000/svg">
<rect width="16" height="16" fill="white" fill-opacity="0.01"/>
<path fill-rule="evenodd" clip-rule="evenodd" d="M9.07943 3.20587C9.80087 2.71577 10.7131 2.70617 11.3907 3.15124C11.5447 3.25229 11.7089 3.41269 12.1483 3.85204C12.5877 4.29137 12.7481 4.45572 12.8491 4.6096C13.2942 5.2873 13.2846 6.19948 12.7945 6.92092C12.6826 7.08558 12.5095 7.26208 12.054 7.71755L11.3941 8.37752C11.1858 8.58579 11.1858 8.92348 11.3941 9.13176C11.6024 9.34005 11.9401 9.34005 12.1483 9.13176L12.8082 8.47179L12.8541 8.42601C13.2483 8.03184 13.5006 7.77962 13.6768 7.52031C14.397 6.46008 14.4343 5.08012 13.7407 4.02408C13.5715 3.76652 13.325 3.52011 12.9502 3.14539L12.9025 3.09778L12.855 3.05015C12.4802 2.6753 12.2338 2.42878 11.9762 2.25964C10.9202 1.5661 9.54027 1.60329 8.48004 2.32353C8.22073 2.49968 7.9685 2.752 7.57432 3.14629L7.52856 3.19207L6.86859 3.85204C6.66031 4.06031 6.66031 4.398 6.86859 4.60628C7.07687 4.81455 7.41456 4.81455 7.62283 4.60628L8.2828 3.94631C8.73827 3.49084 8.91477 3.31772 9.07943 3.20587ZM4.60585 7.62327C4.81413 7.41499 4.81413 7.07729 4.60585 6.86902C4.39756 6.66074 4.05988 6.66074 3.8516 6.86902L3.19163 7.52898L3.14586 7.57476C2.75157 7.96892 2.49926 8.22115 2.3231 8.48047C1.60286 9.54071 1.56568 10.9206 2.25922 11.9767C2.42836 12.2342 2.67487 12.4806 3.04974 12.8554L3.09735 12.903L3.14496 12.9506C3.51968 13.3254 3.76609 13.572 4.02365 13.7411C5.0797 14.4347 6.45964 14.3975 7.51988 13.6772C7.77919 13.5011 8.03142 13.2487 8.42559 12.8545L8.47137 12.8087L9.13134 12.1488C9.33961 11.9405 9.33961 11.6028 9.13134 11.3946C8.92305 11.1862 8.58536 11.1862 8.37708 11.3946L7.71712 12.0545C7.26165 12.51 7.08515 12.6831 6.9205 12.7949C6.19905 13.285 5.28688 13.2946 4.60917 12.8496C4.45529 12.7485 4.29095 12.588 3.8516 12.1488C3.41225 11.7094 3.25187 11.5451 3.1508 11.3911C2.70575 10.7135 2.71535 9.8013 3.20544 9.07985C3.31729 8.9152 3.49042 8.7387 3.94589 8.28323L4.60585 7.62327ZM10.2632 6.49138C10.4715 6.28311 10.4715 5.94541 10.2632 5.73713C10.0549 5.52886 9.71723 5.52886 9.50895 5.73713L5.73771 9.50838C5.52944 9.71665 5.52944 10.0543 5.73771 10.2626C5.94599 10.4709 6.28368 10.4709 6.49196 10.2626L10.2632 6.49138Z" fill="#020A00" fill-opacity="0.627451"/>
</svg>
