<svg width="16" height="16" viewBox="0 0 16 16" fill="none" xmlns="http://www.w3.org/2000/svg">
<rect width="16" height="16" fill="white" fill-opacity="0.01"/>
<path fill-rule="evenodd" clip-rule="evenodd" d="M10.6667 6.9333C10.6667 8.99517 8.99523 10.6666 6.93336 10.6666C4.8715 10.6666 3.20003 8.99517 3.20003 6.9333C3.20003 4.87143 4.8715 3.19997 6.93336 3.19997C8.99523 3.19997 10.6667 4.87143 10.6667 6.9333ZM9.92946 10.6836C9.10831 11.3406 8.06671 11.7333 6.93336 11.7333C4.2824 11.7333 2.13336 9.58427 2.13336 6.9333C2.13336 4.28234 4.2824 2.1333 6.93336 2.1333C9.58433 2.1333 11.7334 4.28234 11.7334 6.9333C11.7334 8.06665 11.3406 9.10824 10.6837 9.9294L13.7105 12.9561C13.9187 13.1644 13.9187 13.5022 13.7105 13.7105C13.5022 13.9187 13.1645 13.9187 12.9562 13.7105L9.92946 10.6836Z" fill="#020A00" fill-opacity="0.627451"/>
</svg>
