<svg width="24" height="13" viewBox="0 0 24 13" fill="none" xmlns="http://www.w3.org/2000/svg">
<path d="M2.99773 12.2614C2.54698 12.2614 2.1341 12.1515 1.7591 11.9318C1.3841 11.7083 1.08485 11.4091 0.86137 11.0341C0.641673 10.6591 0.531824 10.2462 0.531824 9.79545C0.531824 9.34091 0.641673 8.92614 0.86137 8.55114C1.08485 8.17614 1.3841 7.87689 1.7591 7.65341C2.1341 7.42992 2.54698 7.31818 2.99773 7.31818H4.31592V5.03409H2.99773C2.54698 5.03409 2.1341 4.92424 1.7591 4.70455C1.3841 4.48106 1.08485 4.18371 0.86137 3.8125C0.641673 3.4375 0.531824 3.02273 0.531824 2.56818C0.531824 2.11364 0.641673 1.70076 0.86137 1.32955C1.08485 0.954545 1.3841 0.657197 1.7591 0.4375C2.1341 0.214015 2.54698 0.102272 2.99773 0.102272C3.45228 0.102272 3.86705 0.214015 4.24205 0.4375C4.61705 0.657197 4.91629 0.954545 5.13978 1.32955C5.36326 1.70076 5.47501 2.11364 5.47501 2.56818V3.875H7.7591V2.56818C7.7591 2.11364 7.86895 1.70076 8.08864 1.32955C8.31213 0.954545 8.60948 0.657197 8.98069 0.4375C9.35569 0.214015 9.77046 0.102272 10.225 0.102272C10.6796 0.102272 11.0924 0.214015 11.4636 0.4375C11.8386 0.657197 12.136 0.954545 12.3557 1.32955C12.5792 1.70076 12.6909 2.11364 12.6909 2.56818C12.6909 3.02273 12.5792 3.4375 12.3557 3.8125C12.136 4.18371 11.8386 4.48106 11.4636 4.70455C11.0924 4.92424 10.6796 5.03409 10.225 5.03409H8.91819V7.31818H10.225C10.6796 7.31818 11.0924 7.42992 11.4636 7.65341C11.8386 7.87689 12.136 8.17614 12.3557 8.55114C12.5792 8.92614 12.6909 9.34091 12.6909 9.79545C12.6909 10.2462 12.5792 10.6591 12.3557 11.0341C12.136 11.4091 11.8386 11.7083 11.4636 11.9318C11.0924 12.1515 10.6796 12.2614 10.225 12.2614C9.77046 12.2614 9.35569 12.1515 8.98069 11.9318C8.60948 11.7083 8.31213 11.4091 8.08864 11.0341C7.86895 10.6591 7.7591 10.2462 7.7591 9.79545V8.47727H5.47501V9.79545C5.47501 10.2462 5.36326 10.6591 5.13978 11.0341C4.91629 11.4091 4.61705 11.7083 4.24205 11.9318C3.86705 12.1515 3.45228 12.2614 2.99773 12.2614ZM2.99773 11.1023C3.24016 11.1023 3.45985 11.0436 3.65682 10.9261C3.85758 10.8087 4.01667 10.6515 4.1341 10.4545C4.25531 10.2538 4.31592 10.0341 4.31592 9.79545V8.47727H2.99773C2.7591 8.47727 2.5394 8.53788 2.33864 8.65909C2.14167 8.77652 1.98448 8.93561 1.86705 9.13636C1.74963 9.33333 1.69092 9.55303 1.69092 9.79545C1.69092 10.0341 1.74963 10.2538 1.86705 10.4545C1.98448 10.6515 2.14167 10.8087 2.33864 10.9261C2.5394 11.0436 2.7591 11.1023 2.99773 11.1023ZM2.99773 3.875H4.31592V2.56818C4.31592 2.32576 4.25531 2.10606 4.1341 1.90909C4.01667 1.71212 3.85758 1.55492 3.65682 1.4375C3.45985 1.32008 3.24016 1.26136 2.99773 1.26136C2.7591 1.26136 2.5394 1.32008 2.33864 1.4375C2.14167 1.55492 1.98448 1.71212 1.86705 1.90909C1.74963 2.10606 1.69092 2.32576 1.69092 2.56818C1.69092 2.81061 1.74963 3.0322 1.86705 3.23295C1.98448 3.42992 2.14167 3.58712 2.33864 3.70455C2.5394 3.81818 2.7591 3.875 2.99773 3.875ZM8.91819 3.875H10.225C10.4674 3.875 10.6871 3.81818 10.8841 3.70455C11.0811 3.58712 11.2383 3.42992 11.3557 3.23295C11.4731 3.0322 11.5318 2.81061 11.5318 2.56818C11.5318 2.32576 11.4731 2.10606 11.3557 1.90909C11.2383 1.71212 11.0811 1.55492 10.8841 1.4375C10.6871 1.32008 10.4674 1.26136 10.225 1.26136C9.98258 1.26136 9.76099 1.32008 9.56023 1.4375C9.36326 1.55492 9.20607 1.71212 9.08864 1.90909C8.97501 2.10606 8.91819 2.32576 8.91819 2.56818V3.875ZM10.225 11.1023C10.4674 11.1023 10.6871 11.0436 10.8841 10.9261C11.0811 10.8087 11.2383 10.6515 11.3557 10.4545C11.4731 10.2538 11.5318 10.0341 11.5318 9.79545C11.5318 9.55303 11.4731 9.33333 11.3557 9.13636C11.2383 8.93561 11.0811 8.77652 10.8841 8.65909C10.6871 8.53788 10.4674 8.47727 10.225 8.47727H8.91819V9.79545C8.91819 10.0341 8.97501 10.2538 9.08864 10.4545C9.20607 10.6515 9.36326 10.8087 9.56023 10.9261C9.76099 11.0436 9.98258 11.1023 10.225 11.1023ZM5.47501 7.31818H7.7591V5.03409H5.47501V7.31818ZM22.3884 3.27273C22.3202 2.69697 22.0437 2.25 21.5588 1.93182C21.074 1.61364 20.4793 1.45455 19.7747 1.45455C19.2596 1.45455 18.8088 1.53788 18.4224 1.70455C18.0399 1.87121 17.7406 2.10038 17.5247 2.39205C17.3126 2.68371 17.2065 3.01515 17.2065 3.38636C17.2065 3.69697 17.2804 3.96401 17.4281 4.1875C17.5796 4.4072 17.7728 4.59091 18.0077 4.73864C18.2425 4.88258 18.4887 5.00189 18.7463 5.09659C19.0039 5.1875 19.2406 5.26136 19.4565 5.31818L20.6384 5.63636C20.9414 5.71591 21.2785 5.82576 21.6497 5.96591C22.0247 6.10606 22.3827 6.29735 22.7236 6.53977C23.0683 6.77841 23.3524 7.08523 23.5759 7.46023C23.7993 7.83523 23.9111 8.29545 23.9111 8.84091C23.9111 9.4697 23.7463 10.0379 23.4168 10.5455C23.091 11.053 22.6137 11.4564 21.9849 11.7557C21.3599 12.0549 20.6005 12.2045 19.7065 12.2045C18.8732 12.2045 18.1516 12.0701 17.5418 11.8011C16.9357 11.5322 16.4584 11.1572 16.1099 10.6761C15.7653 10.1951 15.5702 9.63636 15.5247 9H16.9793C17.0171 9.43939 17.1649 9.80303 17.4224 10.0909C17.6838 10.375 18.0134 10.5871 18.4111 10.7273C18.8126 10.8636 19.2444 10.9318 19.7065 10.9318C20.2444 10.9318 20.7274 10.8447 21.1554 10.6705C21.5834 10.4924 21.9224 10.2462 22.1724 9.93182C22.4224 9.61364 22.5474 9.24242 22.5474 8.81818C22.5474 8.43182 22.4395 8.11742 22.2236 7.875C22.0077 7.63258 21.7236 7.43561 21.3713 7.28409C21.019 7.13258 20.6384 7 20.2293 6.88636L18.7974 6.47727C17.8884 6.21591 17.1687 5.8428 16.6384 5.35795C16.1081 4.87311 15.8429 4.23864 15.8429 3.45455C15.8429 2.80303 16.019 2.23485 16.3713 1.75C16.7274 1.26136 17.2046 0.882575 17.8031 0.613636C18.4054 0.340909 19.0778 0.204545 19.8202 0.204545C20.5702 0.204545 21.2368 0.339015 21.8202 0.607954C22.4035 0.873105 22.8656 1.23674 23.2065 1.69886C23.5512 2.16098 23.7331 2.68561 23.752 3.27273H22.3884Z" fill="#1D211C"/>
</svg>
