<svg width="16" height="16" viewBox="0 0 16 16" fill="none" xmlns="http://www.w3.org/2000/svg">
<rect width="16" height="16" fill="white" fill-opacity="0.01"/>
<path fill-rule="evenodd" clip-rule="evenodd" d="M5.86686 1.06665C5.57231 1.06665 5.33353 1.30543 5.33353 1.59998C5.33353 1.89453 5.57231 2.13332 5.86686 2.13332H10.1335C10.4281 2.13332 10.6669 1.89453 10.6669 1.59998C10.6669 1.30543 10.4281 1.06665 10.1335 1.06665H5.86686ZM3.2002 3.73332C3.2002 3.43877 3.43898 3.19998 3.73353 3.19998H5.33353H10.6669H12.2669C12.5614 3.19998 12.8002 3.43877 12.8002 3.73332C12.8002 4.02787 12.5614 4.26665 12.2669 4.26665H11.7335V12.8C11.7335 13.3891 11.256 13.8667 10.6669 13.8667H5.33353C4.74443 13.8667 4.26686 13.3891 4.26686 12.8V4.26665H3.73353C3.43898 4.26665 3.2002 4.02787 3.2002 3.73332ZM5.33353 4.26665H10.6669V12.8H5.33353V4.26665Z" fill="#CE2C31"/>
</svg>
